<svg width="110" height="33" viewBox="0 0 110 33" fill="none" xmlns="http://www.w3.org/2000/svg">
<path d="M5.66136 0.114536C3.40993 1.10109 0.934875 3.88823 0.15317 7.38669C-0.836798 11.8194 3.28292 13.6938 3.62082 13.0792C4.01853 12.357 2.88262 12.1128 2.6488 9.81294C2.34661 6.84245 3.66579 3.52326 5.32604 2.0669C5.63465 1.79632 5.61997 2.17292 5.61997 2.86951C5.61997 4.11519 5.55422 15.2977 5.55422 17.6315C5.55422 20.7894 5.42962 21.7866 5.20584 22.772C4.97911 23.7706 4.6146 24.4453 4.8908 24.7052C5.1994 24.9959 6.51699 24.3044 7.27977 23.1899C8.19444 21.8533 8.51462 20.2481 8.57211 18.5049C8.64154 16.4035 8.63858 13.069 8.64154 11.167C8.64431 9.42265 8.66961 4.3147 8.61233 1.24398C8.59829 0.4908 6.60291 -0.2994 5.66124 0.11362M85.6091 14.8934C85.5366 16.5351 85.1894 17.8183 84.7586 18.7235C83.9245 20.4757 82.1937 21.0199 81.4588 18.5009C81.0584 17.1278 81.0397 14.8346 81.3276 12.9185C81.6207 10.9665 82.439 9.49229 83.7941 9.62524C85.1307 9.75666 85.7563 11.5596 85.6091 14.8933V14.8934ZM63.0765 25.0791C63.0584 27.8069 62.6483 30.1986 61.7688 30.8933C60.5215 31.8783 58.845 31.1394 59.1921 29.1489C59.4993 27.3875 60.952 25.5886 63.0801 23.3907C63.0801 23.3907 63.0845 23.8919 63.0766 25.0791H63.0765ZM62.7359 14.8775C62.6596 16.3728 62.2893 17.8749 61.8853 18.7237C61.0514 20.4759 59.308 21.0237 58.5856 18.5011C58.0916 16.7775 58.2099 14.5467 58.4543 13.1412C58.7715 11.3175 59.5402 9.62563 60.9208 9.62563C62.2632 9.62563 62.9251 11.1673 62.7359 14.8776V14.8775ZM49.6827 14.8546C49.6009 16.4383 49.3057 17.7621 48.8321 18.7237C47.9752 20.4639 46.28 21.0158 45.5324 18.5011C44.9934 16.6878 45.1769 14.2153 45.4011 12.8797C45.7338 10.8977 46.567 9.49248 47.8677 9.62563C49.2037 9.76227 49.8532 11.5598 49.6827 14.8547V14.8546ZM109.502 16.7044C109.176 16.7044 109.027 17.0568 108.903 17.65C108.476 19.7127 108.026 20.1784 107.447 20.1784C106.799 20.1784 106.217 19.1571 106.067 17.1126C105.95 15.5049 105.969 12.5452 106.119 9.60103C106.15 8.99612 105.99 8.39761 104.44 7.8082C103.774 7.55467 102.804 7.18138 102.321 8.4011C100.958 11.847 100.424 14.5828 100.298 15.6942C100.292 15.7517 100.225 15.7635 100.213 15.6291C100.133 14.7389 99.9539 13.1214 99.9317 9.72296C99.9274 9.05989 99.7932 8.49549 99.0941 8.03341C98.6405 7.73358 97.263 7.20329 96.7669 7.83416C96.3372 8.35012 95.8395 9.73865 95.3224 11.3846C94.9021 12.7223 94.6094 13.6273 94.6094 13.6273C94.6094 13.6273 94.615 10.0178 94.62 8.6486C94.6222 8.13207 94.2837 7.95996 94.1817 7.92876C93.7224 7.78919 92.8173 7.55604 92.4332 7.55604C91.9592 7.55604 91.8431 7.83339 91.8431 8.23751C91.8431 8.29042 91.7683 12.9898 91.7683 16.2758C91.7683 16.4186 91.7683 16.5743 91.7697 16.7397C91.5075 18.25 90.6573 20.3002 89.7327 20.3002C88.8069 20.3002 88.3702 19.4431 88.3702 15.5256C88.3702 13.2403 88.4357 12.2466 88.4679 10.5937C88.4866 9.64163 88.5227 8.91053 88.5207 8.74462C88.5139 8.23584 87.6735 7.97941 87.2824 7.88464C86.8895 7.78908 86.5481 7.75206 86.2815 7.76795C85.9042 7.79024 85.6372 8.04939 85.6372 8.40582C85.6372 8.59693 85.6393 8.96034 85.6393 8.96034C85.1533 8.16083 84.3716 7.60437 83.8515 7.44311C82.4507 7.0076 80.9889 7.39349 79.8863 9.00861C79.01 10.2919 78.4818 11.7454 78.2739 13.8336C78.1219 15.3602 78.1715 16.9084 78.4416 18.2176C78.1152 19.695 77.5092 20.3002 76.8457 20.3002C75.8823 20.3002 75.1839 18.6542 75.265 15.8074C75.3185 13.935 75.6764 12.621 76.0677 10.72C76.2345 9.90967 76.0989 9.4854 75.759 9.07876C75.4472 8.70586 74.7829 8.51533 73.8279 8.74966C73.1477 8.91673 72.1751 9.0964 71.2853 9.23441C71.2853 9.23441 71.339 9.01015 71.383 8.61477C71.6145 6.54127 69.4621 6.7095 68.7754 7.37178C68.3655 7.76718 68.0864 8.23352 67.9805 9.07199C67.8126 10.4026 68.8493 11.0302 68.8493 11.0302C68.5091 12.66 67.6754 14.7891 66.8147 16.3284C66.3536 17.1532 66.0009 17.7643 65.5456 18.4139C65.544 18.172 65.5427 17.9302 65.5419 17.6894C65.5315 14.2628 65.575 11.566 65.5943 10.594C65.613 9.64196 65.6495 8.93024 65.6474 8.76433C65.6423 8.3922 65.4347 8.25168 65.0029 8.07374C64.6211 7.91637 64.1698 7.80744 63.7015 7.76945C63.1105 7.72119 62.7545 8.04933 62.7637 8.43736C62.7655 8.51062 62.7655 8.96048 62.7655 8.96048C62.2795 8.16096 61.4978 7.60451 60.9777 7.44324C59.5769 7.00792 58.1151 7.39383 57.0126 9.00874C56.1365 10.292 55.5627 12.0928 55.4001 13.8178C55.2487 15.4255 55.2766 16.7918 55.4831 17.9427C55.2603 19.0952 54.6199 20.3004 53.8958 20.3004C52.97 20.3004 52.4433 19.4432 52.4433 15.5258C52.4433 13.2404 52.5088 12.2467 52.5411 10.594C52.5598 9.64196 52.5959 8.91067 52.5938 8.74495C52.587 8.23618 51.7466 7.97975 51.3556 7.88478C50.9464 7.78573 50.5931 7.7493 50.3219 7.77022C49.964 7.79814 49.7124 8.13364 49.7124 8.38387V8.96048C49.2263 8.16096 48.4446 7.60451 47.9246 7.44324C46.5237 7.00792 45.0701 7.40003 43.9594 9.00874C43.2351 10.0577 42.6487 11.2206 42.347 13.795C42.2597 14.5389 42.2212 15.2355 42.2262 15.8867C41.9374 17.7358 40.6617 19.867 39.6182 19.867C39.0076 19.867 38.4261 18.6271 38.4261 15.9847C38.4261 12.465 38.6342 7.45352 38.6693 6.97053C38.6693 6.97053 39.9878 6.94707 40.2431 6.94396C40.9007 6.9364 41.4964 6.95269 42.3723 6.90578C42.8117 6.88233 43.2349 5.23175 42.7815 5.02747C42.576 4.93502 41.1235 4.854 40.5477 4.84121C40.0635 4.82972 38.7156 4.7253 38.7156 4.7253C38.7156 4.7253 38.8365 1.39894 38.8647 1.04756C38.8886 0.754689 38.5266 0.603902 38.319 0.512405C37.8143 0.288935 37.3628 0.18194 36.8275 0.0664247C36.088 -0.0932756 35.7525 0.0629357 35.687 0.716305C35.5883 1.7079 35.5372 4.6123 35.5372 4.6123C34.9945 4.6123 33.1408 4.50125 32.5979 4.50125C32.0936 4.50125 31.5493 6.77186 32.2465 6.79976C33.0488 6.83233 34.4468 6.86043 35.3737 6.8897C35.3737 6.8897 35.3324 11.9837 35.3324 13.5564C35.3324 13.7237 35.3338 13.8848 35.3341 14.0411C34.824 16.8244 33.0273 18.3279 33.0273 18.3279C33.4132 16.4866 32.625 15.1039 31.2053 13.9334C30.6822 13.5021 29.6496 12.6855 28.4943 11.7907C28.4943 11.7907 29.1634 11.1003 29.7568 9.71138C30.1773 8.72755 30.1955 7.60164 29.1634 7.35336C27.4582 6.94284 26.0522 8.25384 25.6328 9.65343C25.3079 10.7377 25.4812 11.5422 26.1177 12.378C26.1642 12.439 26.2146 12.5014 26.2666 12.5642C25.8817 13.3409 25.3529 14.3866 24.905 15.1975C23.6619 17.4489 22.7229 19.2297 22.0132 19.2297C21.4459 19.2297 21.4535 17.4217 21.4535 15.7289C21.4535 14.2696 21.5564 12.0756 21.6386 9.80403C21.6658 9.05278 21.307 8.62481 20.7055 8.23718C20.34 8.00169 19.5599 7.53865 19.1082 7.53865C18.432 7.53865 16.4811 7.63497 14.6378 13.2168C14.4055 13.9204 13.9491 15.2023 13.9491 15.2023L13.9884 8.48992C13.9884 8.33254 13.9083 8.18039 13.725 8.0763C13.4144 7.89974 12.5847 7.53865 11.847 7.53865C11.4955 7.53865 11.3201 7.70979 11.3201 8.05092L11.2558 18.5525C11.2558 19.3504 11.2757 20.2813 11.351 20.6884C11.4261 21.0961 11.5477 21.4277 11.6984 21.625C11.8488 21.8219 12.0228 21.9721 12.3097 22.0341C12.5768 22.0917 14.0389 22.2882 14.1149 21.7033C14.206 21.0023 14.2095 20.244 14.9773 17.4161C16.1725 13.0135 17.731 10.8654 18.4636 10.1025C18.5917 9.96917 18.738 9.96121 18.7309 10.1794C18.6996 11.1447 18.5897 13.5566 18.5156 15.6057C18.3172 21.0892 19.2701 22.1056 20.6319 22.1056C21.6737 22.1056 23.1423 21.022 24.7166 18.2788C25.6981 16.5694 26.6511 14.8932 27.3357 13.6851C27.8129 14.1475 28.3483 14.6451 28.8834 15.1768C30.1268 16.4122 30.5351 17.5861 30.2642 18.6998C30.0571 19.5512 29.2768 20.4286 27.8882 19.5758C27.4835 19.327 27.3107 19.1348 26.9038 18.8543C26.6851 18.7036 26.3513 18.6586 26.1512 18.8164C25.6313 19.2268 25.3339 19.7487 25.1641 20.3949C24.999 21.0237 25.6005 21.3561 26.2241 21.6468C26.761 21.8971 27.9151 22.1238 28.651 22.1496C31.5186 22.25 33.8158 20.7002 35.4149 16.7025C35.7011 20.155 36.9194 22.1087 39.036 22.1087C40.4511 22.1087 41.8699 20.1939 42.4904 18.3102C42.6685 19.0781 42.9321 19.7458 43.2726 20.3104C44.9036 23.0156 48.0676 22.4334 49.6569 20.1363C50.1483 19.4265 50.2231 19.1714 50.2231 19.1714C50.4549 21.3404 52.1235 22.0983 53.0788 22.0983C54.1488 22.0983 55.2536 21.5688 56.0279 19.7439C56.1186 19.942 56.2176 20.1311 56.3258 20.3104C57.9567 23.0156 61.1208 22.4333 62.7101 20.1362C62.7851 20.0284 62.85 19.9307 62.9069 19.843L62.9535 21.2677C62.9535 21.2677 62.0469 22.1384 61.4903 22.6725C59.0408 25.0251 57.1782 26.81 57.0412 28.8885C56.8653 31.5388 58.9186 32.5238 60.472 32.6529C62.1217 32.79 63.5344 31.836 64.4027 30.5009C65.1664 29.3258 65.6664 26.7966 65.6297 24.2987C65.6151 23.2984 65.591 22.0265 65.5721 20.6632C66.433 19.6165 67.403 18.2937 68.2962 16.7453C69.2695 15.0578 70.3126 12.7917 70.8468 11.0281C70.8468 11.0281 71.7531 11.0363 72.7203 10.97C73.0297 10.9489 73.1186 11.015 73.0614 11.2524C72.9923 11.5392 71.8394 16.1944 72.8916 19.2956C73.6118 21.4185 75.2354 22.1015 76.198 22.1015C77.3248 22.1015 78.4027 21.2107 78.9804 19.8879C79.05 20.0354 79.1228 20.1781 79.2022 20.3098C80.8332 23.015 83.9861 22.4292 85.5865 20.1356C85.9477 19.6181 86.1527 19.1707 86.1527 19.1707C86.4961 21.4156 88.1638 22.1091 89.1189 22.1091C90.1139 22.1091 91.0582 21.6821 91.8243 19.7844C91.8564 20.6199 91.9067 21.3032 91.9863 21.5186C92.0349 21.6503 92.3176 21.8156 92.5233 21.8955C93.4335 22.2488 94.3618 22.0818 94.7053 22.0091C94.9432 21.9587 95.1287 21.7589 95.1541 21.2429C95.2207 19.8881 95.1798 17.6118 95.5721 15.9202C96.2307 13.0811 96.845 11.9798 97.1365 11.4346C97.2996 11.1291 97.4836 11.0787 97.4903 11.402C97.504 12.0562 97.5351 13.9771 97.7902 16.558C97.9776 18.4562 98.2279 19.5782 98.4203 19.9332C98.9692 20.9487 99.6472 20.9967 100.199 20.9967C100.551 20.9967 101.285 20.8951 101.219 20.249C101.187 19.934 101.243 17.9875 101.893 15.1904C102.317 13.3639 103.024 11.7135 103.279 11.1101C103.373 10.8876 103.416 11.063 103.415 11.0972C103.361 12.3551 103.241 16.4695 103.73 18.7198C104.394 21.7682 106.313 22.1093 106.982 22.1093C108.41 22.1093 109.578 20.9721 109.972 17.9799C110.066 17.2599 109.926 16.7039 109.506 16.7039" fill="#CBCBCB"/>
</svg>
