<svg width="17" height="4" viewBox="0 0 17 4" fill="none" xmlns="http://www.w3.org/2000/svg">
<path d="M4 2C4 3.10457 3.10457 4 2 4C0.895431 4 0 3.10457 0 2C0 0.895431 0.895431 0 2 0C3.10457 0 4 0.895431 4 2Z" fill="#6B6C73"/>
<path d="M10 2C10 3.10457 9.10457 4 8 4C6.89543 4 6 3.10457 6 2C6 0.895431 6.89543 0 8 0C9.10457 0 10 0.895431 10 2Z" fill="#6B6C73"/>
<path d="M17 2C17 3.10457 16.1046 4 15 4C13.8954 4 13 3.10457 13 2C13 0.895431 13.8954 0 15 0C16.1046 0 17 0.895431 17 2Z" fill="#6B6C73"/>
</svg>
