<svg width="18" height="17" viewBox="0 0 18 17" fill="none" xmlns="http://www.w3.org/2000/svg">
<path fill-rule="evenodd" clip-rule="evenodd" d="M7.4 0C3.31309 0 0 3.31309 0 7.4C0 11.4869 3.31309 14.8 7.4 14.8C9.28717 14.8 11.0093 14.0936 12.3165 12.9307L15.4929 16.1071C15.8834 16.4976 16.5166 16.4976 16.9071 16.1071C17.2976 15.7166 17.2976 15.0834 16.9071 14.6929L13.7071 11.4929C13.6786 11.4644 13.6489 11.438 13.618 11.4137C14.3658 10.2575 14.8 8.87945 14.8 7.4C14.8 3.31309 11.4869 0 7.4 0ZM2 7.4C2 4.41766 4.41766 2 7.4 2C10.3823 2 12.8 4.41766 12.8 7.4C12.8 10.3823 10.3823 12.8 7.4 12.8C4.41766 12.8 2 10.3823 2 7.4Z" fill="#5C5E69"/>
</svg>
