<svg width="23" height="23" viewBox="0 0 23 23" fill="none" xmlns="http://www.w3.org/2000/svg">
<mask id="path-1-inside-1_32_24" fill="white">
<path fill-rule="evenodd" clip-rule="evenodd" d="M1.26035 6.83392C1.34674 5.79734 2.21327 5.00001 3.25344 5.00001H20.0798C21.12 5.00001 21.9865 5.79733 22.0729 6.83392L22.9688 17.5848C23.2118 20.4999 20.9113 23 17.9861 23H5.34718C2.42198 23 0.121524 20.4999 0.364449 17.5848L1.26035 6.83392ZM20.0798 7.00001L3.25344 7.00001L2.35754 17.7509C2.21179 19.4999 3.59206 21 5.34718 21H17.9861C19.7412 21 21.1215 19.4999 20.9757 17.7509L20.0798 7.00001Z"/>
<path d="M17 5.33333C17 4.63295 16.862 3.93942 16.594 3.29235C16.326 2.64528 15.9331 2.05734 15.4379 1.5621C14.9427 1.06685 14.3547 0.674 13.7076 0.405975C13.0606 0.137951 12.367 -3.06147e-08 11.6667 0C10.9663 3.06147e-08 10.2728 0.137951 9.62568 0.405976C8.97862 0.674001 8.39067 1.06685 7.89543 1.5621C7.40018 2.05734 7.00733 2.64528 6.73931 3.29235C6.47128 3.93942 6.33333 4.63295 6.33333 5.33333H8.27047C8.27047 4.88734 8.35832 4.44571 8.52899 4.03366C8.69966 3.62162 8.94983 3.24723 9.26519 2.93186C9.58056 2.61649 9.95495 2.36633 10.367 2.19566C10.779 2.02498 11.2207 1.93714 11.6667 1.93714C12.1127 1.93714 12.5543 2.02498 12.9663 2.19566C13.3784 2.36633 13.7528 2.61649 14.0681 2.93186C14.3835 3.24722 14.6337 3.62162 14.8043 4.03366C14.975 4.44571 15.0629 4.88734 15.0629 5.33333H17Z"/>
<path d="M16.0314 9.33331C16.5663 9.33331 17.0089 9.77044 16.9123 10.2966C16.8446 10.6651 16.7381 11.0264 16.594 11.3743C16.326 12.0214 15.9331 12.6093 15.4379 13.1045C14.9427 13.5998 14.3547 13.9926 13.7076 14.2607C13.0606 14.5287 12.367 14.6666 11.6667 14.6666C10.9663 14.6666 10.2728 14.5287 9.62568 14.2607C8.97862 13.9926 8.39067 13.5998 7.89543 13.1045C7.40018 12.6093 7.00733 12.0214 6.73931 11.3743C6.59522 11.0264 6.48872 10.6651 6.42104 10.2966C6.32443 9.77044 6.76698 9.33331 7.3019 9.33331C7.83683 9.33331 8.25715 9.77549 8.40765 10.2888C8.44183 10.4054 8.48232 10.5203 8.52899 10.633C8.69966 11.045 8.94983 11.4194 9.26519 11.7348C9.58056 12.0502 9.95495 12.3003 10.367 12.471C10.779 12.6417 11.2207 12.7295 11.6667 12.7295C12.1127 12.7295 12.5543 12.6417 12.9663 12.471C13.3784 12.3003 13.7528 12.0502 14.0681 11.7348C14.3835 11.4194 14.6337 11.045 14.8043 10.633C14.851 10.5203 14.8915 10.4054 14.9257 10.2888C15.0762 9.77549 15.4965 9.33331 16.0314 9.33331Z"/>
</mask>
<path d="M1.26035 6.83392L-0.732738 6.66783L1.26035 6.83392ZM22.0729 6.83392L20.0798 7.00001V7.00001L22.0729 6.83392ZM22.9688 17.5848L24.9619 17.4187V17.4187L22.9688 17.5848ZM0.364449 17.5848L2.35754 17.7509V17.7509L0.364449 17.5848ZM3.25344 7.00001V5.00001H1.41318L1.26035 6.83392L3.25344 7.00001ZM20.0798 7.00001L22.0729 6.83392L21.9201 5.00001H20.0798V7.00001ZM2.35754 17.7509L4.35063 17.917L2.35754 17.7509ZM20.9757 17.7509L18.9826 17.917L20.9757 17.7509ZM17 5.33333V7.33333H19V5.33333H17ZM6.33333 5.33333H4.33333L4.33333 7.33333H6.33333V5.33333ZM8.27047 5.33333V7.33333H10.2705L10.2705 5.33333H8.27047ZM15.0629 5.33333H13.0629V7.33333H15.0629V5.33333ZM16.594 11.3743L18.4418 12.1397L16.594 11.3743ZM6.73931 11.3743L8.58707 10.6089L6.73931 11.3743ZM8.52899 10.633L6.68123 11.3983L8.52899 10.633ZM14.8043 10.633L16.6521 11.3983L14.8043 10.633ZM14.9257 10.2888L16.8449 10.8515L14.9257 10.2888ZM8.40765 10.2888L6.48844 10.8515L8.40765 10.2888ZM6.42104 10.2966L8.38815 9.93535L6.42104 10.2966ZM16.9123 10.2966L14.9452 9.93535L16.9123 10.2966ZM3.25344 3.00001C1.17309 3.00001 -0.559975 4.59466 -0.732738 6.66783L3.25344 7.00001V7.00001V3.00001ZM20.0798 3.00001H3.25344V7.00001H20.0798V3.00001ZM24.066 6.66783C23.8933 4.59465 22.1602 3.00001 20.0798 3.00001V7.00001L20.0798 7.00001L24.066 6.66783ZM24.9619 17.4187L24.066 6.66783L20.0798 7.00001L20.9757 17.7509L24.9619 17.4187ZM17.9861 25C22.0814 25 25.302 21.4998 24.9619 17.4187L20.9757 17.7509C21.1215 19.4999 19.7412 21 17.9861 21V25ZM5.34718 25H17.9861V21H5.34718V25ZM-1.62864 17.4187C-1.96874 21.4998 1.2519 25 5.34718 25V21C3.59206 21 2.21179 19.4999 2.35754 17.7509L-1.62864 17.4187ZM-0.732738 6.66783L-1.62864 17.4187L2.35754 17.7509L3.25344 7.00001L-0.732738 6.66783ZM3.25344 9.00001L20.0798 9.00001V5.00001L3.25344 5.00001V9.00001ZM4.35063 17.917L5.24654 7.1661L1.26035 6.83392L0.364449 17.5848L4.35063 17.917ZM5.34718 19C4.76214 19 4.30205 18.5 4.35063 17.917L0.364449 17.5848C0.121524 20.4999 2.42198 23 5.34718 23V19ZM17.9861 19H5.34718V23H17.9861V19ZM18.9826 17.917C19.0312 18.5 18.5711 19 17.9861 19V23C20.9113 23 23.2118 20.4999 22.9688 17.5848L18.9826 17.917ZM18.0867 7.1661L18.9826 17.917L22.9688 17.5848L22.0729 6.83392L18.0867 7.1661ZM19 5.33333C19 4.3703 18.8103 3.41671 18.4418 2.52699L14.7463 4.05772C14.9138 4.46214 15 4.89559 15 5.33333H19ZM18.4418 2.52699C18.0732 1.63726 17.5331 0.828844 16.8521 0.147882L14.0237 2.97631C14.3332 3.28584 14.5787 3.6533 14.7463 4.05772L18.4418 2.52699ZM16.8521 0.147882C16.1711 -0.53308 15.3627 -1.07325 14.473 -1.44178L12.9423 2.25373C13.3467 2.42125 13.7142 2.66678 14.0237 2.97631L16.8521 0.147882ZM14.473 -1.44178C13.5833 -1.81032 12.6297 -2 11.6667 -2V2C12.1044 2 12.5379 2.08622 12.9423 2.25373L14.473 -1.44178ZM11.6667 -2C10.7036 -2 9.75004 -1.81032 8.86032 -1.44178L10.3911 2.25373C10.7955 2.08622 11.2289 2 11.6667 2V-2ZM8.86032 -1.44178C7.9706 -1.07325 7.16218 -0.53308 6.48121 0.147883L9.30964 2.97631C9.61917 2.66678 9.98663 2.42125 10.3911 2.25373L8.86032 -1.44178ZM6.48121 0.147883C5.80025 0.828846 5.26008 1.63727 4.89155 2.52699L8.58707 4.05772C8.75458 3.6533 9.00011 3.28584 9.30964 2.97631L6.48121 0.147883ZM4.89155 2.52699C4.52301 3.41671 4.33333 4.3703 4.33333 5.33333H8.33333C8.33333 4.89559 8.41955 4.46214 8.58707 4.05772L4.89155 2.52699ZM6.33333 7.33333H8.27047V3.33333H6.33333V7.33333ZM10.2705 5.33333C10.2705 5.14998 10.3066 4.96842 10.3767 4.79903L6.68123 3.2683C6.41005 3.92299 6.27047 4.62469 6.27047 5.33333H10.2705ZM10.3767 4.79903C10.4469 4.62964 10.5498 4.47572 10.6794 4.34607L7.85098 1.51765C7.3499 2.01873 6.95242 2.6136 6.68123 3.2683L10.3767 4.79903ZM10.6794 4.34607C10.8091 4.21642 10.963 4.11358 11.1324 4.04342L9.60163 0.347898C8.94693 0.619083 8.35206 1.01656 7.85098 1.51765L10.6794 4.34607ZM11.1324 4.04342C11.3018 3.97325 11.4833 3.93714 11.6667 3.93714V-0.0628624C10.958 -0.0628624 10.2563 0.0767145 9.60163 0.347898L11.1324 4.04342ZM11.6667 3.93714C11.85 3.93714 12.0316 3.97325 12.201 4.04342L13.7317 0.347898C13.077 0.0767141 12.3753 -0.0628624 11.6667 -0.0628624V3.93714ZM12.201 4.04342C12.3704 4.11358 12.5243 4.21642 12.6539 4.34607L15.4823 1.51765C14.9813 1.01656 14.3864 0.619083 13.7317 0.347898L12.201 4.04342ZM12.6539 4.34607C12.7836 4.47572 12.8864 4.62964 12.9566 4.79903L16.6521 3.2683C16.3809 2.6136 15.9834 2.01873 15.4823 1.51765L12.6539 4.34607ZM12.9566 4.79903C13.0267 4.96843 13.0629 5.14998 13.0629 5.33333H17.0629C17.0629 4.62469 16.9233 3.92299 16.6521 3.2683L12.9566 4.79903ZM15.0629 7.33333H17V3.33333H15.0629V7.33333ZM14.9452 9.93535C14.9029 10.1657 14.8363 10.3915 14.7463 10.6089L18.4418 12.1397C18.6399 11.6613 18.7863 11.1646 18.8794 10.6578L14.9452 9.93535ZM14.7463 10.6089C14.5787 11.0133 14.3332 11.3808 14.0237 11.6903L16.8521 14.5188C17.5331 13.8378 18.0732 13.0294 18.4418 12.1397L14.7463 10.6089ZM14.0237 11.6903C13.7142 11.9999 13.3467 12.2454 12.9423 12.4129L14.473 16.1084C15.3627 15.7399 16.1711 15.1997 16.8521 14.5188L14.0237 11.6903ZM12.9423 12.4129C12.5379 12.5804 12.1044 12.6666 11.6667 12.6666V16.6666C12.6297 16.6666 13.5833 16.477 14.473 16.1084L12.9423 12.4129ZM11.6667 12.6666C11.2289 12.6666 10.7955 12.5804 10.3911 12.4129L8.86032 16.1084C9.75004 16.477 10.7036 16.6666 11.6667 16.6666V12.6666ZM10.3911 12.4129C9.98663 12.2454 9.61917 11.9999 9.30964 11.6903L6.48121 14.5188C7.16218 15.1997 7.9706 15.7399 8.86032 16.1084L10.3911 12.4129ZM9.30964 11.6903C9.00011 11.3808 8.75458 11.0133 8.58707 10.6089L4.89155 12.1397C5.26008 13.0294 5.80025 13.8378 6.48121 14.5188L9.30964 11.6903ZM8.58707 10.6089C8.49701 10.3915 8.43045 10.1657 8.38815 9.93535L4.45393 10.6578C4.54699 11.1646 4.69342 11.6613 4.89155 12.1397L8.58707 10.6089ZM6.48844 10.8515C6.54275 11.0368 6.60707 11.2193 6.68123 11.3983L10.3767 9.86761C10.3576 9.82128 10.3409 9.77405 10.3269 9.72613L6.48844 10.8515ZM6.68123 11.3983C6.95241 12.053 7.3499 12.6479 7.85098 13.149L10.6794 10.3206C10.5498 10.1909 10.4469 10.037 10.3767 9.86761L6.68123 11.3983ZM7.85098 13.149C8.35206 13.6501 8.94693 14.0476 9.60163 14.3187L11.1324 10.6232C10.963 10.5531 10.8091 10.4502 10.6794 10.3206L7.85098 13.149ZM9.60163 14.3187C10.2563 14.5899 10.958 14.7295 11.6667 14.7295V10.7295C11.4833 10.7295 11.3018 10.6934 11.1324 10.6232L9.60163 14.3187ZM11.6667 14.7295C12.3753 14.7295 13.077 14.5899 13.7317 14.3187L12.201 10.6232C12.0316 10.6934 11.85 10.7295 11.6667 10.7295V14.7295ZM13.7317 14.3187C14.3864 14.0476 14.9813 13.6501 15.4823 13.149L12.6539 10.3206C12.5243 10.4502 12.3704 10.5531 12.201 10.6232L13.7317 14.3187ZM15.4823 13.149C15.9834 12.6479 16.3809 12.053 16.6521 11.3983L12.9566 9.86761C12.8864 10.037 12.7836 10.1909 12.6539 10.3206L15.4823 13.149ZM16.6521 11.3983C16.7263 11.2193 16.7906 11.0368 16.8449 10.8515L13.0065 9.72613C12.9924 9.77405 12.9758 9.82129 12.9566 9.86761L16.6521 11.3983ZM16.8449 10.8515C16.827 10.9125 16.7876 10.9997 16.6852 11.0935C16.5714 11.1976 16.3449 11.3333 16.0314 11.3333V7.33331C14.302 7.33331 13.3083 8.69665 13.0065 9.72613L16.8449 10.8515ZM7.3019 11.3333C6.98846 11.3333 6.76188 11.1976 6.64813 11.0935C6.54572 10.9997 6.50631 10.9125 6.48844 10.8515L10.3269 9.72613C10.025 8.69666 9.03135 7.33331 7.3019 7.33331V11.3333ZM8.38815 9.93535C8.46442 10.3507 8.31364 10.7423 8.07825 10.9913C7.85954 11.2228 7.57519 11.3333 7.3019 11.3333V7.33331C5.78495 7.33331 4.08588 8.65352 4.45393 10.6578L8.38815 9.93535ZM18.8794 10.6578C19.2474 8.65352 17.5484 7.33331 16.0314 7.33331V11.3333C15.7581 11.3333 15.4738 11.2228 15.2551 10.9913C15.0197 10.7423 14.8689 10.3507 14.9452 9.93535L18.8794 10.6578Z" fill="#5C5D67" mask="url(#path-1-inside-1_32_24)"/>
</svg>
