<svg width="23" height="24" viewBox="0 0 23 24" fill="none" xmlns="http://www.w3.org/2000/svg">
<path fill-rule="evenodd" clip-rule="evenodd" d="M11.5 2C6.24763 2 2 6.23082 2 11.4372C2 14.6991 3.66539 17.5771 6.20561 19.2742L6.69816 19.6033L6.63105 20.3658L7.44838 19.987L7.85335 20.1544C8.9748 20.6179 10.2059 20.8744 11.5 20.8744C16.7524 20.8744 21 16.6435 21 11.4372C21 6.23082 16.7524 2 11.5 2ZM0 11.4372C0 5.11495 5.15439 0 11.5 0C17.8456 0 23 5.11495 23 11.4372C23 17.7594 17.8456 22.8744 11.5 22.8744C10.097 22.8744 8.75064 22.624 7.50505 22.1651L4.33565 23.6342L4.60356 20.5903C1.81127 18.5062 0 15.1831 0 11.4372Z" fill="#5C5D67"/>
<path d="M9.23457 8.54837L6.09528 14.6874C6.04255 14.7906 6.17805 14.8858 6.25727 14.8013L9.21907 11.6421C9.29321 11.563 9.41684 11.5574 9.49785 11.6294L12.7534 14.5232C12.8464 14.6059 12.9916 14.5844 13.0567 14.4783L16.8738 8.25791C16.9339 8.15984 16.8081 8.05442 16.7221 8.13087L13.0647 11.3819C12.9889 11.4492 12.8747 11.4492 12.799 11.3819L9.54551 8.48994C9.44771 8.40301 9.29415 8.43186 9.23457 8.54837Z" fill="#5C5D67"/>
</svg>
